<?xml version="1.0" standalone="no"?>
<!DOCTYPE svg PUBLIC "-//W3C//DTD SVG 20010904//EN"
 "http://www.w3.org/TR/2001/REC-SVG-20010904/DTD/svg10.dtd">
<svg version="1.0" xmlns="http://www.w3.org/2000/svg"
 width="212.000000pt" height="238.000000pt" viewBox="0 0 212.000000 238.000000"
 preserveAspectRatio="xMidYMid meet">

<g transform="translate(0.000000,238.000000) scale(0.100000,-0.100000)"
fill="#ffffff" stroke="none">
<path d="M913 2368 c-5 -7 -17 -42 -27 -78 -9 -36 -49 -131 -87 -211 l-71
-146 -66 24 c-37 14 -97 27 -133 30 -61 5 -67 4 -83 -18 -22 -32 -20 -57 9
-104 45 -72 51 -70 -193 -70 -226 0 -262 -6 -262 -43 0 -9 29 -56 65 -103 36
-48 92 -133 125 -189 l59 -102 -59 -49 c-65 -54 -110 -108 -110 -131 0 -37 35
-61 100 -69 50 -6 125 -29 149 -46 2 -1 -10 -18 -27 -38 -87 -99 -235 -365
-248 -446 -8 -48 11 -54 102 -34 40 9 143 18 245 22 l176 6 17 -67 c9 -36 27
-91 41 -122 23 -52 26 -55 57 -52 29 3 37 10 61 58 30 61 79 116 95 106 5 -3
13 -18 17 -33 23 -94 238 -423 298 -454 27 -15 34 -4 58 82 16 59 155 372 179
401 3 4 30 1 60 -7 30 -8 71 -15 91 -15 67 0 89 60 47 128 l-21 35 34 -7 c76
-14 317 -18 398 -7 131 17 134 29 45 147 -30 39 -92 135 -139 212 l-85 141 70
67 c54 52 70 74 70 96 0 41 -32 68 -82 69 -24 1 -53 4 -66 8 -23 6 -22 8 31
76 96 126 204 330 215 408 6 44 2 45 -127 22 -47 -8 -146 -17 -220 -20 -75 -3
-160 -8 -188 -10 -53 -5 -53 -5 -53 24 0 38 -45 192 -70 242 -31 59 -73 49
-104 -24 -7 -18 -26 -47 -41 -65 l-28 -33 -29 58 c-48 95 -155 248 -208 297
-51 47 -71 55 -87 34z m216 -338 l48 -95 -33 -43 c-19 -24 -41 -68 -50 -98 -8
-30 -19 -54 -23 -54 -5 0 -11 27 -14 60 -8 75 -46 175 -67 175 -12 0 -14 -12
-13 -55 4 -81 -6 -158 -23 -175 -14 -13 -20 -8 -60 45 -25 33 -57 69 -71 80
l-26 20 77 158 c42 87 76 161 76 164 0 4 5 19 10 34 l11 27 54 -74 c30 -41 77
-117 104 -169z m278 -200 c4 -72 1 -95 -19 -150 -22 -63 -24 -65 -63 -71 -22
-3 -48 -9 -57 -14 -13 -5 -18 -3 -18 9 0 10 -23 40 -51 68 l-50 50 12 51 c10
43 23 61 91 126 44 42 87 90 96 106 l16 30 19 -60 c11 -33 22 -98 24 -145z
m-742 49 c81 -33 137 -77 180 -138 l28 -42 -30 -32 c-34 -35 -63 -87 -63 -112
0 -20 -48 -20 -80 2 -86 57 -120 111 -144 226 -8 42 -23 91 -32 109 l-16 31
43 -7 c23 -4 75 -20 114 -37z m1249 -190 c-51 -103 -109 -192 -161 -250 -32
-36 -35 -37 -71 -27 -20 6 -65 8 -99 5 l-62 -6 39 52 c50 66 65 106 44 114
-10 4 -32 -11 -63 -41 -50 -49 -71 -57 -71 -27 0 10 -10 30 -21 45 l-22 27 24
72 c13 40 29 78 36 86 9 11 58 17 201 23 104 4 207 12 228 16 22 5 40 8 42 6
2 -1 -18 -44 -44 -95z m-1461 25 c43 -6 46 -9 63 -52 9 -25 41 -70 70 -101 30
-30 52 -56 50 -59 -2 -2 -26 8 -53 21 -56 28 -147 52 -168 43 -28 -10 -15 -34
28 -51 47 -19 107 -61 107 -76 0 -5 -26 -9 -58 -9 -33 0 -81 -7 -108 -15 -27
-8 -52 -15 -56 -15 -4 0 -37 50 -73 110 -37 61 -82 131 -101 155 -19 25 -34
47 -34 50 0 7 279 6 333 -1z m663 -69 c87 -51 110 -174 47 -253 -40 -50 -77
-67 -145 -67 -48 1 -63 5 -94 31 -49 39 -74 88 -74 144 1 133 148 214 266 145z
m265 -126 c27 -27 21 -66 -12 -92 -24 -17 -30 -18 -55 -6 -40 19 -47 79 -12
103 30 22 54 20 79 -5z m-617 -65 c39 -38 -6 -110 -53 -84 -30 16 -41 42 -29
65 21 38 55 46 82 19z m592 -116 c75 -51 93 -153 39 -223 -38 -50 -78 -68
-140 -63 -163 14 -200 230 -52 299 52 24 105 20 153 -13z m-724 -5 c18 -15 34
-28 36 -29 2 -1 -3 -13 -12 -26 -8 -12 -18 -42 -22 -65 -8 -50 -27 -66 -112
-87 -85 -22 -113 -20 -195 15 -40 17 -94 33 -120 36 l-48 6 33 34 c92 95 199
142 325 143 74 0 85 -2 115 -27z m1088 -9 c30 -14 81 -31 114 -38 l58 -12 -56
-52 c-86 -78 -169 -115 -273 -120 l-85 -5 8 24 c9 25 11 137 4 178 -4 22 0 26
35 37 67 21 134 17 195 -12z m-776 -38 c58 -44 73 -141 30 -199 -47 -64 -142
-81 -204 -37 -42 30 -74 100 -66 146 8 41 50 92 91 110 43 20 108 11 149 -20z
m-294 -206 c0 -6 -17 -25 -37 -43 -72 -64 -117 -147 -78 -147 8 0 28 14 45 30
33 32 128 85 137 76 3 -3 -8 -18 -24 -33 -55 -52 -94 -137 -117 -253 l-11 -55
-165 -6 c-91 -3 -182 -9 -202 -14 -21 -4 -38 -4 -38 -1 0 14 81 165 122 229
24 37 67 91 96 121 46 48 58 55 105 61 28 3 72 15 97 25 53 21 70 24 70 10z
m1176 -112 c37 -62 91 -148 120 -190 l52 -77 -56 -7 c-71 -9 -261 1 -329 17
-50 12 -52 13 -63 58 -12 49 -66 129 -102 153 -21 14 -15 15 67 14 76 -1 90 2
93 16 2 9 -5 18 -15 21 -10 3 -38 10 -63 17 -25 6 -55 19 -67 28 -22 16 -18
17 85 18 97 1 153 12 209 43 1 1 32 -50 69 -111z m-674 75 c29 -26 49 -77 42
-110 -15 -74 -97 -114 -167 -82 -36 16 -70 82 -62 119 8 36 40 78 69 91 31 13
94 4 118 -18z m-291 -113 c37 -21 52 -68 46 -151 -7 -104 -31 -154 -106 -220
-34 -30 -71 -69 -82 -86 -12 -18 -24 -33 -29 -33 -10 0 -39 115 -46 188 -10
93 36 226 98 284 32 30 82 37 119 18z m462 -7 c99 -51 149 -118 171 -228 9
-44 25 -97 36 -117 23 -44 20 -45 -63 -23 -119 31 -206 91 -271 188 l-25 38
34 31 c20 17 42 50 52 79 10 27 21 49 26 49 4 0 22 -7 40 -17z m-299 -297 c20
-53 42 -74 58 -58 9 9 9 24 0 60 -12 54 -5 132 12 132 6 0 21 -18 33 -39 32
-55 115 -144 157 -166 20 -11 36 -22 36 -26 0 -3 -31 -71 -69 -150 -38 -79
-75 -163 -82 -186 -6 -24 -16 -43 -20 -43 -9 0 -64 73 -111 146 -40 63 -84
153 -103 215 -18 56 -18 57 4 103 13 25 28 76 34 113 l12 68 11 -62 c6 -35 19
-83 28 -107z"/>
</g>
</svg>
